# xmcd
#
# Track frame offsets: 
#        150
#        19374
#        31195
#        53909
#        73848
#        83772
#        100220
#        119128
#        138520
#        157687
#        180599
#
# Disc length: 2628 seconds
#
# Revision: 1
# Processed by: cddbd v1.5.2PL0 Copyright (c) Steve Scherf et al.
# Submitted via: ExactAudioCopy v0.99pb5
#
DISCID=910a420b
DTITLE=Joan Baez - Ring Them Bells CD2
DYEAR=2007
DGENRE=Folk
TTITLE0=Geordie
TTITLE1=You Ain't Goin' Nowhere
TTITLE2=Suzanne
TTITLE3=You're Aging Well with Dar Williams
TTITLE4=Pajarillo Barranqueno with Tish Hinojosa
TTITLE5=Gracias A La Vida with Tish Hinojosa
TTITLE6=The Water Is Wide with Indigo Girls
TTITLE7=Don't Think Twice, It's Alright with Indigo Girls
TTITLE8=Stones In The Road with Mary Chapin Carpenter
TTITLE9=Diamond And Rust with Mary Chapin Carpenter
TTITLE10=The Night They Drove Old Dixie Down
EXTD=
EXTT0=
EXTT1=
EXTT2=
EXTT3=
EXTT4=
EXTT5=
EXTT6=
EXTT7=
EXTT8=
EXTT9=
EXTT10=
PLAYORDER=
